<mxfile compressed="false" host="app.diagrams.net" modified="2022-12-20T23:09:07.274Z" agent="5.0 (Macintosh; Intel Mac OS X 10_15_7) AppleWebKit/537.36 (KHTML, like Gecko) Chrome/108.0.0.0 Safari/537.36" etag="HR82Wh9WCebqFS-_yaQI" version="20.7.4" type="device" pages="2">
  <diagram id="0cUDYOq8ynezP78sWt2X" name="RNN block">
    <mxGraphModel dx="1347" dy="578" grid="1" gridSize="10" guides="1" tooltips="1" connect="1" arrows="1" fold="1" page="1" pageScale="1" pageWidth="827" pageHeight="1169" math="1" shadow="0">
      <root>
        <mxCell id="0" />
        <mxCell id="1" parent="0" />
        <mxCell id="paAdVMozNUKkr-exo0b3-1" value="" style="rounded=1;whiteSpace=wrap;html=1;fillColor=#dae8fc;strokeColor=#6c8ebf;" parent="1" vertex="1">
          <mxGeometry x="310" y="270" width="320" height="130" as="geometry" />
        </mxCell>
        <mxCell id="paAdVMozNUKkr-exo0b3-2" value="$$o_t$$" style="rounded=1;whiteSpace=wrap;html=1;fontStyle=1;fillColor=#f8cecc;strokeColor=#b85450;" parent="1" vertex="1">
          <mxGeometry x="450" y="200" width="40" height="40" as="geometry" />
        </mxCell>
        <mxCell id="paAdVMozNUKkr-exo0b3-6" value="$$h_{t-1}$$" style="edgeStyle=orthogonalEdgeStyle;rounded=0;orthogonalLoop=1;jettySize=auto;html=1;entryX=0;entryY=0.5;entryDx=0;entryDy=0;entryPerimeter=0;" parent="1" source="paAdVMozNUKkr-exo0b3-5" target="paAdVMozNUKkr-exo0b3-10" edge="1">
          <mxGeometry relative="1" as="geometry" />
        </mxCell>
        <mxCell id="paAdVMozNUKkr-exo0b3-5" value="" style="rounded=1;whiteSpace=wrap;html=1;dashed=1;fillColor=#dae8fc;strokeColor=#6c8ebf;" parent="1" vertex="1">
          <mxGeometry x="-150" y="270" width="320" height="130" as="geometry" />
        </mxCell>
        <mxCell id="paAdVMozNUKkr-exo0b3-7" value="" style="rounded=1;whiteSpace=wrap;html=1;dashed=1;fillColor=#dae8fc;strokeColor=#6c8ebf;" parent="1" vertex="1">
          <mxGeometry x="760" y="270" width="320" height="130" as="geometry" />
        </mxCell>
        <mxCell id="paAdVMozNUKkr-exo0b3-14" style="edgeStyle=orthogonalEdgeStyle;rounded=0;orthogonalLoop=1;jettySize=auto;html=1;entryX=0.5;entryY=1;entryDx=0;entryDy=0;entryPerimeter=0;" parent="1" source="paAdVMozNUKkr-exo0b3-9" target="paAdVMozNUKkr-exo0b3-13" edge="1">
          <mxGeometry relative="1" as="geometry" />
        </mxCell>
        <mxCell id="paAdVMozNUKkr-exo0b3-9" value="$$x_t$$" style="rounded=1;whiteSpace=wrap;html=1;fontStyle=1;fillColor=#d5e8d4;strokeColor=#82b366;" parent="1" vertex="1">
          <mxGeometry x="450" y="430" width="40" height="40" as="geometry" />
        </mxCell>
        <mxCell id="paAdVMozNUKkr-exo0b3-20" style="edgeStyle=orthogonalEdgeStyle;rounded=0;orthogonalLoop=1;jettySize=auto;html=1;entryX=0;entryY=0.5;entryDx=0;entryDy=0;entryPerimeter=0;" parent="1" source="paAdVMozNUKkr-exo0b3-10" target="paAdVMozNUKkr-exo0b3-17" edge="1">
          <mxGeometry relative="1" as="geometry">
            <Array as="points">
              <mxPoint x="350" y="350" />
            </Array>
          </mxGeometry>
        </mxCell>
        <mxCell id="paAdVMozNUKkr-exo0b3-10" value="" style="verticalLabelPosition=bottom;verticalAlign=top;html=1;shape=mxgraph.flowchart.or;fillColor=#B3B3B3;" parent="1" vertex="1">
          <mxGeometry x="340" y="325" width="20" height="20" as="geometry" />
        </mxCell>
        <mxCell id="paAdVMozNUKkr-exo0b3-12" style="edgeStyle=orthogonalEdgeStyle;rounded=0;orthogonalLoop=1;jettySize=auto;html=1;entryX=0.5;entryY=0;entryDx=0;entryDy=0;entryPerimeter=0;" parent="1" source="paAdVMozNUKkr-exo0b3-11" target="paAdVMozNUKkr-exo0b3-10" edge="1">
          <mxGeometry relative="1" as="geometry" />
        </mxCell>
        <mxCell id="paAdVMozNUKkr-exo0b3-11" value="$$W_{hh}$$" style="text;html=1;strokeColor=none;fillColor=none;align=center;verticalAlign=middle;whiteSpace=wrap;rounded=0;" parent="1" vertex="1">
          <mxGeometry x="330" y="280" width="40" height="20" as="geometry" />
        </mxCell>
        <mxCell id="7rlebU14XDJ5rUpBGYFI-1" style="edgeStyle=orthogonalEdgeStyle;rounded=0;orthogonalLoop=1;jettySize=auto;html=1;entryX=0.5;entryY=1;entryDx=0;entryDy=0;entryPerimeter=0;" edge="1" parent="1" source="paAdVMozNUKkr-exo0b3-13" target="paAdVMozNUKkr-exo0b3-17">
          <mxGeometry relative="1" as="geometry">
            <Array as="points">
              <mxPoint x="530" y="370" />
            </Array>
          </mxGeometry>
        </mxCell>
        <mxCell id="paAdVMozNUKkr-exo0b3-13" value="" style="verticalLabelPosition=bottom;verticalAlign=top;html=1;shape=mxgraph.flowchart.or;fillColor=#B3B3B3;" parent="1" vertex="1">
          <mxGeometry x="460" y="360" width="20" height="20" as="geometry" />
        </mxCell>
        <mxCell id="paAdVMozNUKkr-exo0b3-16" style="edgeStyle=orthogonalEdgeStyle;rounded=0;orthogonalLoop=1;jettySize=auto;html=1;entryX=0;entryY=0.5;entryDx=0;entryDy=0;entryPerimeter=0;" parent="1" source="paAdVMozNUKkr-exo0b3-15" target="paAdVMozNUKkr-exo0b3-13" edge="1">
          <mxGeometry relative="1" as="geometry" />
        </mxCell>
        <mxCell id="paAdVMozNUKkr-exo0b3-15" value="$$W_{hx}$$" style="text;html=1;strokeColor=none;fillColor=none;align=center;verticalAlign=middle;whiteSpace=wrap;rounded=0;" parent="1" vertex="1">
          <mxGeometry x="370" y="360" width="40" height="20" as="geometry" />
        </mxCell>
        <mxCell id="paAdVMozNUKkr-exo0b3-24" style="edgeStyle=orthogonalEdgeStyle;rounded=0;orthogonalLoop=1;jettySize=auto;html=1;entryX=0;entryY=0.5;entryDx=0;entryDy=0;entryPerimeter=0;" parent="1" source="paAdVMozNUKkr-exo0b3-17" target="paAdVMozNUKkr-exo0b3-22" edge="1">
          <mxGeometry relative="1" as="geometry">
            <Array as="points">
              <mxPoint x="530" y="335" />
            </Array>
          </mxGeometry>
        </mxCell>
        <mxCell id="paAdVMozNUKkr-exo0b3-17" value="" style="verticalLabelPosition=bottom;verticalAlign=top;html=1;shape=mxgraph.flowchart.summing_function;fillColor=#B3B3B3;" parent="1" vertex="1">
          <mxGeometry x="520" y="340" width="20" height="20" as="geometry" />
        </mxCell>
        <mxCell id="paAdVMozNUKkr-exo0b3-19" style="edgeStyle=orthogonalEdgeStyle;rounded=0;orthogonalLoop=1;jettySize=auto;html=1;entryX=1;entryY=0.5;entryDx=0;entryDy=0;entryPerimeter=0;exitX=0.5;exitY=0;exitDx=0;exitDy=0;" parent="1" source="paAdVMozNUKkr-exo0b3-18" target="paAdVMozNUKkr-exo0b3-17" edge="1">
          <mxGeometry relative="1" as="geometry">
            <Array as="points">
              <mxPoint x="580" y="350" />
            </Array>
          </mxGeometry>
        </mxCell>
        <mxCell id="paAdVMozNUKkr-exo0b3-18" value="$$b_h$$" style="text;html=1;strokeColor=none;fillColor=none;align=center;verticalAlign=middle;whiteSpace=wrap;rounded=0;" parent="1" vertex="1">
          <mxGeometry x="560" y="360" width="40" height="20" as="geometry" />
        </mxCell>
        <mxCell id="paAdVMozNUKkr-exo0b3-26" style="edgeStyle=orthogonalEdgeStyle;rounded=0;orthogonalLoop=1;jettySize=auto;html=1;entryX=0.5;entryY=1;entryDx=0;entryDy=0;entryPerimeter=0;" parent="1" source="paAdVMozNUKkr-exo0b3-22" target="paAdVMozNUKkr-exo0b3-25" edge="1">
          <mxGeometry relative="1" as="geometry">
            <Array as="points">
              <mxPoint x="580" y="320" />
              <mxPoint x="540" y="320" />
            </Array>
          </mxGeometry>
        </mxCell>
        <mxCell id="paAdVMozNUKkr-exo0b3-22" value="$$f$$" style="verticalLabelPosition=middle;verticalAlign=middle;html=1;shape=mxgraph.flowchart.on-page_reference;fillColor=#B3B3B3;labelPosition=center;align=center;" parent="1" vertex="1">
          <mxGeometry x="570" y="325" width="20" height="20" as="geometry" />
        </mxCell>
        <mxCell id="paAdVMozNUKkr-exo0b3-8" value="$$h_t$$" style="edgeStyle=orthogonalEdgeStyle;rounded=0;orthogonalLoop=1;jettySize=auto;html=1;entryX=0;entryY=0.5;entryDx=0;entryDy=0;exitX=1;exitY=0.5;exitDx=0;exitDy=0;exitPerimeter=0;" parent="1" source="paAdVMozNUKkr-exo0b3-22" target="paAdVMozNUKkr-exo0b3-7" edge="1">
          <mxGeometry relative="1" as="geometry" />
        </mxCell>
        <mxCell id="paAdVMozNUKkr-exo0b3-30" style="edgeStyle=orthogonalEdgeStyle;rounded=0;orthogonalLoop=1;jettySize=auto;html=1;entryX=1;entryY=0.5;entryDx=0;entryDy=0;entryPerimeter=0;endArrow=classicThin;endFill=1;" parent="1" source="paAdVMozNUKkr-exo0b3-25" target="paAdVMozNUKkr-exo0b3-29" edge="1">
          <mxGeometry relative="1" as="geometry" />
        </mxCell>
        <mxCell id="paAdVMozNUKkr-exo0b3-25" value="" style="verticalLabelPosition=bottom;verticalAlign=top;html=1;shape=mxgraph.flowchart.or;fillColor=#B3B3B3;" parent="1" vertex="1">
          <mxGeometry x="530" y="286" width="20" height="20" as="geometry" />
        </mxCell>
        <mxCell id="paAdVMozNUKkr-exo0b3-28" style="edgeStyle=orthogonalEdgeStyle;rounded=0;orthogonalLoop=1;jettySize=auto;html=1;entryX=1;entryY=0.5;entryDx=0;entryDy=0;entryPerimeter=0;endArrow=classicThin;endFill=1;" parent="1" source="paAdVMozNUKkr-exo0b3-27" target="paAdVMozNUKkr-exo0b3-25" edge="1">
          <mxGeometry relative="1" as="geometry" />
        </mxCell>
        <mxCell id="paAdVMozNUKkr-exo0b3-27" value="$$W_{oh}$$" style="text;html=1;strokeColor=none;fillColor=none;align=center;verticalAlign=middle;whiteSpace=wrap;rounded=0;" parent="1" vertex="1">
          <mxGeometry x="584" y="286" width="40" height="20" as="geometry" />
        </mxCell>
        <mxCell id="paAdVMozNUKkr-exo0b3-34" style="edgeStyle=orthogonalEdgeStyle;rounded=0;orthogonalLoop=1;jettySize=auto;html=1;entryX=0.5;entryY=1;entryDx=0;entryDy=0;entryPerimeter=0;endArrow=classicThin;endFill=1;" parent="1" source="paAdVMozNUKkr-exo0b3-29" target="paAdVMozNUKkr-exo0b3-33" edge="1">
          <mxGeometry relative="1" as="geometry" />
        </mxCell>
        <mxCell id="paAdVMozNUKkr-exo0b3-29" value="" style="verticalLabelPosition=bottom;verticalAlign=top;html=1;shape=mxgraph.flowchart.summing_function;fillColor=#B3B3B3;" parent="1" vertex="1">
          <mxGeometry x="460" y="320" width="20" height="20" as="geometry" />
        </mxCell>
        <mxCell id="paAdVMozNUKkr-exo0b3-32" style="edgeStyle=orthogonalEdgeStyle;rounded=0;orthogonalLoop=1;jettySize=auto;html=1;entryX=0;entryY=0.5;entryDx=0;entryDy=0;entryPerimeter=0;endArrow=classicThin;endFill=1;" parent="1" source="paAdVMozNUKkr-exo0b3-31" target="paAdVMozNUKkr-exo0b3-29" edge="1">
          <mxGeometry relative="1" as="geometry">
            <Array as="points">
              <mxPoint x="410" y="330" />
            </Array>
          </mxGeometry>
        </mxCell>
        <mxCell id="paAdVMozNUKkr-exo0b3-31" value="$$b_o$$" style="text;html=1;strokeColor=none;fillColor=none;align=center;verticalAlign=middle;whiteSpace=wrap;rounded=0;" parent="1" vertex="1">
          <mxGeometry x="390" y="286" width="40" height="20" as="geometry" />
        </mxCell>
        <mxCell id="paAdVMozNUKkr-exo0b3-33" value="$$g$$" style="verticalLabelPosition=middle;verticalAlign=middle;html=1;shape=mxgraph.flowchart.on-page_reference;fillColor=#B3B3B3;labelPosition=center;align=center;" parent="1" vertex="1">
          <mxGeometry x="460" y="280" width="20" height="20" as="geometry" />
        </mxCell>
        <mxCell id="paAdVMozNUKkr-exo0b3-3" style="edgeStyle=orthogonalEdgeStyle;rounded=0;orthogonalLoop=1;jettySize=auto;html=1;entryX=0.5;entryY=1;entryDx=0;entryDy=0;exitX=0.5;exitY=0;exitDx=0;exitDy=0;exitPerimeter=0;" parent="1" source="paAdVMozNUKkr-exo0b3-33" target="paAdVMozNUKkr-exo0b3-2" edge="1">
          <mxGeometry relative="1" as="geometry" />
        </mxCell>
      </root>
    </mxGraphModel>
  </diagram>
  <diagram id="yiIWZkhQWHP75x9b_8al" name="computational graph">
    <mxGraphModel dx="1244" dy="634" grid="1" gridSize="10" guides="1" tooltips="1" connect="1" arrows="1" fold="1" page="1" pageScale="1" pageWidth="827" pageHeight="1169" math="1" shadow="0">
      <root>
        <mxCell id="0" />
        <mxCell id="1" parent="0" />
        <mxCell id="YQQWaHqi_LQkS10ElrP2-49" style="edgeStyle=orthogonalEdgeStyle;rounded=0;orthogonalLoop=1;jettySize=auto;html=1;entryX=0;entryY=0.5;entryDx=0;entryDy=0;" edge="1" parent="1" source="YQQWaHqi_LQkS10ElrP2-1" target="YQQWaHqi_LQkS10ElrP2-48">
          <mxGeometry relative="1" as="geometry" />
        </mxCell>
        <mxCell id="YQQWaHqi_LQkS10ElrP2-1" value="RNN" style="rounded=1;whiteSpace=wrap;html=1;fillColor=#dae8fc;strokeColor=#6c8ebf;" vertex="1" parent="1">
          <mxGeometry x="439" y="290" width="94" height="30" as="geometry" />
        </mxCell>
        <mxCell id="YQQWaHqi_LQkS10ElrP2-68" style="edgeStyle=orthogonalEdgeStyle;rounded=0;orthogonalLoop=1;jettySize=auto;html=1;entryX=0.5;entryY=1;entryDx=0;entryDy=0;" edge="1" parent="1" source="YQQWaHqi_LQkS10ElrP2-2" target="YQQWaHqi_LQkS10ElrP2-67">
          <mxGeometry relative="1" as="geometry" />
        </mxCell>
        <mxCell id="YQQWaHqi_LQkS10ElrP2-2" value="$$o_t$$" style="rounded=1;whiteSpace=wrap;html=1;fontStyle=1;fillColor=#f8cecc;strokeColor=#b85450;" vertex="1" parent="1">
          <mxGeometry x="466" y="220" width="40" height="40" as="geometry" />
        </mxCell>
        <mxCell id="YQQWaHqi_LQkS10ElrP2-3" style="edgeStyle=orthogonalEdgeStyle;rounded=0;orthogonalLoop=1;jettySize=auto;html=1;entryX=0.5;entryY=1;entryDx=0;entryDy=0;" edge="1" parent="1" source="YQQWaHqi_LQkS10ElrP2-4" target="YQQWaHqi_LQkS10ElrP2-1">
          <mxGeometry relative="1" as="geometry">
            <mxPoint x="486" y="380" as="targetPoint" />
          </mxGeometry>
        </mxCell>
        <mxCell id="YQQWaHqi_LQkS10ElrP2-4" value="$$x_t$$" style="rounded=1;whiteSpace=wrap;html=1;fontStyle=1;fillColor=#d5e8d4;strokeColor=#82b366;" vertex="1" parent="1">
          <mxGeometry x="466" y="350" width="40" height="40" as="geometry" />
        </mxCell>
        <mxCell id="YQQWaHqi_LQkS10ElrP2-28" style="edgeStyle=orthogonalEdgeStyle;rounded=0;orthogonalLoop=1;jettySize=auto;html=1;entryX=0.5;entryY=1;entryDx=0;entryDy=0;exitX=0.5;exitY=0;exitDx=0;exitDy=0;" edge="1" parent="1" source="YQQWaHqi_LQkS10ElrP2-1" target="YQQWaHqi_LQkS10ElrP2-2">
          <mxGeometry relative="1" as="geometry">
            <mxPoint x="486" y="280" as="sourcePoint" />
          </mxGeometry>
        </mxCell>
        <mxCell id="YQQWaHqi_LQkS10ElrP2-34" style="edgeStyle=orthogonalEdgeStyle;rounded=0;orthogonalLoop=1;jettySize=auto;html=1;entryX=0;entryY=0.5;entryDx=0;entryDy=0;exitX=1;exitY=0.5;exitDx=0;exitDy=0;" edge="1" parent="1" source="YQQWaHqi_LQkS10ElrP2-29" target="YQQWaHqi_LQkS10ElrP2-1">
          <mxGeometry relative="1" as="geometry">
            <mxPoint x="410" y="305" as="sourcePoint" />
          </mxGeometry>
        </mxCell>
        <mxCell id="YQQWaHqi_LQkS10ElrP2-29" value="RNN" style="rounded=1;whiteSpace=wrap;html=1;fillColor=#dae8fc;strokeColor=#6c8ebf;" vertex="1" parent="1">
          <mxGeometry x="300" y="290" width="94" height="30" as="geometry" />
        </mxCell>
        <mxCell id="YQQWaHqi_LQkS10ElrP2-64" style="edgeStyle=orthogonalEdgeStyle;rounded=0;orthogonalLoop=1;jettySize=auto;html=1;entryX=0.5;entryY=1;entryDx=0;entryDy=0;" edge="1" parent="1" source="YQQWaHqi_LQkS10ElrP2-30" target="YQQWaHqi_LQkS10ElrP2-63">
          <mxGeometry relative="1" as="geometry" />
        </mxCell>
        <mxCell id="YQQWaHqi_LQkS10ElrP2-30" value="$$o_{t-1}$$" style="rounded=1;whiteSpace=wrap;html=1;fontStyle=1;fillColor=#f8cecc;strokeColor=#b85450;" vertex="1" parent="1">
          <mxGeometry x="327" y="220" width="40" height="40" as="geometry" />
        </mxCell>
        <mxCell id="YQQWaHqi_LQkS10ElrP2-31" style="edgeStyle=orthogonalEdgeStyle;rounded=0;orthogonalLoop=1;jettySize=auto;html=1;entryX=0.5;entryY=1;entryDx=0;entryDy=0;" edge="1" parent="1" source="YQQWaHqi_LQkS10ElrP2-32" target="YQQWaHqi_LQkS10ElrP2-29">
          <mxGeometry relative="1" as="geometry">
            <mxPoint x="347" y="380" as="targetPoint" />
          </mxGeometry>
        </mxCell>
        <mxCell id="YQQWaHqi_LQkS10ElrP2-32" value="$$x_{t-1}$$" style="rounded=1;whiteSpace=wrap;html=1;fontStyle=1;fillColor=#d5e8d4;strokeColor=#82b366;" vertex="1" parent="1">
          <mxGeometry x="327" y="350" width="40" height="40" as="geometry" />
        </mxCell>
        <mxCell id="YQQWaHqi_LQkS10ElrP2-33" style="edgeStyle=orthogonalEdgeStyle;rounded=0;orthogonalLoop=1;jettySize=auto;html=1;entryX=0.5;entryY=1;entryDx=0;entryDy=0;exitX=0.5;exitY=0;exitDx=0;exitDy=0;" edge="1" parent="1" source="YQQWaHqi_LQkS10ElrP2-29" target="YQQWaHqi_LQkS10ElrP2-30">
          <mxGeometry relative="1" as="geometry">
            <mxPoint x="347" y="280" as="sourcePoint" />
          </mxGeometry>
        </mxCell>
        <mxCell id="YQQWaHqi_LQkS10ElrP2-47" style="edgeStyle=orthogonalEdgeStyle;rounded=0;orthogonalLoop=1;jettySize=auto;html=1;entryX=0;entryY=0.5;entryDx=0;entryDy=0;" edge="1" parent="1" source="YQQWaHqi_LQkS10ElrP2-35" target="YQQWaHqi_LQkS10ElrP2-29">
          <mxGeometry relative="1" as="geometry" />
        </mxCell>
        <mxCell id="YQQWaHqi_LQkS10ElrP2-35" value="...." style="text;html=1;strokeColor=none;fillColor=none;align=center;verticalAlign=middle;whiteSpace=wrap;rounded=0;" vertex="1" parent="1">
          <mxGeometry x="210" y="290" width="60" height="30" as="geometry" />
        </mxCell>
        <mxCell id="YQQWaHqi_LQkS10ElrP2-46" style="edgeStyle=orthogonalEdgeStyle;rounded=0;orthogonalLoop=1;jettySize=auto;html=1;" edge="1" parent="1" source="YQQWaHqi_LQkS10ElrP2-41" target="YQQWaHqi_LQkS10ElrP2-35">
          <mxGeometry relative="1" as="geometry" />
        </mxCell>
        <mxCell id="YQQWaHqi_LQkS10ElrP2-41" value="RNN" style="rounded=1;whiteSpace=wrap;html=1;fillColor=#dae8fc;strokeColor=#6c8ebf;" vertex="1" parent="1">
          <mxGeometry x="90" y="290" width="94" height="30" as="geometry" />
        </mxCell>
        <mxCell id="YQQWaHqi_LQkS10ElrP2-58" style="edgeStyle=orthogonalEdgeStyle;rounded=0;orthogonalLoop=1;jettySize=auto;html=1;entryX=0.5;entryY=1;entryDx=0;entryDy=0;" edge="1" parent="1" source="YQQWaHqi_LQkS10ElrP2-42" target="YQQWaHqi_LQkS10ElrP2-57">
          <mxGeometry relative="1" as="geometry" />
        </mxCell>
        <mxCell id="YQQWaHqi_LQkS10ElrP2-42" value="$$o_1$$" style="rounded=1;whiteSpace=wrap;html=1;fontStyle=1;fillColor=#f8cecc;strokeColor=#b85450;" vertex="1" parent="1">
          <mxGeometry x="117" y="220" width="40" height="40" as="geometry" />
        </mxCell>
        <mxCell id="YQQWaHqi_LQkS10ElrP2-43" style="edgeStyle=orthogonalEdgeStyle;rounded=0;orthogonalLoop=1;jettySize=auto;html=1;entryX=0.5;entryY=1;entryDx=0;entryDy=0;" edge="1" parent="1" source="YQQWaHqi_LQkS10ElrP2-44" target="YQQWaHqi_LQkS10ElrP2-41">
          <mxGeometry relative="1" as="geometry">
            <mxPoint x="137" y="380" as="targetPoint" />
          </mxGeometry>
        </mxCell>
        <mxCell id="YQQWaHqi_LQkS10ElrP2-44" value="$$x_1$$" style="rounded=1;whiteSpace=wrap;html=1;fontStyle=1;fillColor=#d5e8d4;strokeColor=#82b366;" vertex="1" parent="1">
          <mxGeometry x="117" y="350" width="40" height="40" as="geometry" />
        </mxCell>
        <mxCell id="YQQWaHqi_LQkS10ElrP2-45" style="edgeStyle=orthogonalEdgeStyle;rounded=0;orthogonalLoop=1;jettySize=auto;html=1;entryX=0.5;entryY=1;entryDx=0;entryDy=0;exitX=0.5;exitY=0;exitDx=0;exitDy=0;" edge="1" parent="1" source="YQQWaHqi_LQkS10ElrP2-41" target="YQQWaHqi_LQkS10ElrP2-42">
          <mxGeometry relative="1" as="geometry">
            <mxPoint x="137" y="280" as="sourcePoint" />
          </mxGeometry>
        </mxCell>
        <mxCell id="YQQWaHqi_LQkS10ElrP2-55" style="edgeStyle=orthogonalEdgeStyle;rounded=0;orthogonalLoop=1;jettySize=auto;html=1;entryX=0;entryY=0.5;entryDx=0;entryDy=0;" edge="1" parent="1" source="YQQWaHqi_LQkS10ElrP2-48" target="YQQWaHqi_LQkS10ElrP2-50">
          <mxGeometry relative="1" as="geometry" />
        </mxCell>
        <mxCell id="YQQWaHqi_LQkS10ElrP2-48" value="...." style="text;html=1;strokeColor=none;fillColor=none;align=center;verticalAlign=middle;whiteSpace=wrap;rounded=0;" vertex="1" parent="1">
          <mxGeometry x="566" y="290" width="60" height="30" as="geometry" />
        </mxCell>
        <mxCell id="YQQWaHqi_LQkS10ElrP2-50" value="RNN" style="rounded=1;whiteSpace=wrap;html=1;fillColor=#dae8fc;strokeColor=#6c8ebf;" vertex="1" parent="1">
          <mxGeometry x="656" y="290" width="94" height="30" as="geometry" />
        </mxCell>
        <mxCell id="YQQWaHqi_LQkS10ElrP2-72" style="edgeStyle=orthogonalEdgeStyle;rounded=0;orthogonalLoop=1;jettySize=auto;html=1;entryX=0.5;entryY=1;entryDx=0;entryDy=0;" edge="1" parent="1" source="YQQWaHqi_LQkS10ElrP2-51" target="YQQWaHqi_LQkS10ElrP2-71">
          <mxGeometry relative="1" as="geometry" />
        </mxCell>
        <mxCell id="YQQWaHqi_LQkS10ElrP2-51" value="$$o_T$$" style="rounded=1;whiteSpace=wrap;html=1;fontStyle=1;fillColor=#f8cecc;strokeColor=#b85450;" vertex="1" parent="1">
          <mxGeometry x="683" y="220" width="40" height="40" as="geometry" />
        </mxCell>
        <mxCell id="YQQWaHqi_LQkS10ElrP2-52" style="edgeStyle=orthogonalEdgeStyle;rounded=0;orthogonalLoop=1;jettySize=auto;html=1;entryX=0.5;entryY=1;entryDx=0;entryDy=0;" edge="1" parent="1" source="YQQWaHqi_LQkS10ElrP2-53" target="YQQWaHqi_LQkS10ElrP2-50">
          <mxGeometry relative="1" as="geometry">
            <mxPoint x="703" y="380" as="targetPoint" />
          </mxGeometry>
        </mxCell>
        <mxCell id="YQQWaHqi_LQkS10ElrP2-53" value="$$x_T$$" style="rounded=1;whiteSpace=wrap;html=1;fontStyle=1;fillColor=#d5e8d4;strokeColor=#82b366;" vertex="1" parent="1">
          <mxGeometry x="683" y="350" width="40" height="40" as="geometry" />
        </mxCell>
        <mxCell id="YQQWaHqi_LQkS10ElrP2-54" style="edgeStyle=orthogonalEdgeStyle;rounded=0;orthogonalLoop=1;jettySize=auto;html=1;entryX=0.5;entryY=1;entryDx=0;entryDy=0;exitX=0.5;exitY=0;exitDx=0;exitDy=0;" edge="1" parent="1" source="YQQWaHqi_LQkS10ElrP2-50" target="YQQWaHqi_LQkS10ElrP2-51">
          <mxGeometry relative="1" as="geometry">
            <mxPoint x="703" y="280" as="sourcePoint" />
          </mxGeometry>
        </mxCell>
        <mxCell id="YQQWaHqi_LQkS10ElrP2-59" style="edgeStyle=orthogonalEdgeStyle;rounded=0;orthogonalLoop=1;jettySize=auto;html=1;entryX=0;entryY=0.5;entryDx=0;entryDy=0;" edge="1" parent="1" source="YQQWaHqi_LQkS10ElrP2-56" target="YQQWaHqi_LQkS10ElrP2-57">
          <mxGeometry relative="1" as="geometry" />
        </mxCell>
        <mxCell id="YQQWaHqi_LQkS10ElrP2-56" value="$$y_1$$" style="rounded=1;whiteSpace=wrap;html=1;fontStyle=1;fillColor=#e1d5e7;strokeColor=#9673a6;" vertex="1" parent="1">
          <mxGeometry x="40" y="126" width="40" height="40" as="geometry" />
        </mxCell>
        <mxCell id="YQQWaHqi_LQkS10ElrP2-74" style="edgeStyle=orthogonalEdgeStyle;rounded=0;orthogonalLoop=1;jettySize=auto;html=1;entryX=0.5;entryY=1;entryDx=0;entryDy=0;" edge="1" parent="1" source="YQQWaHqi_LQkS10ElrP2-57" target="YQQWaHqi_LQkS10ElrP2-73">
          <mxGeometry relative="1" as="geometry">
            <Array as="points">
              <mxPoint x="137" y="90" />
              <mxPoint x="397" y="90" />
            </Array>
          </mxGeometry>
        </mxCell>
        <mxCell id="YQQWaHqi_LQkS10ElrP2-57" value="$$l_1$$" style="ellipse;whiteSpace=wrap;html=1;fontStyle=1;fillColor=#fff2cc;strokeColor=#d6b656;" vertex="1" parent="1">
          <mxGeometry x="114" y="126" width="46" height="40" as="geometry" />
        </mxCell>
        <mxCell id="YQQWaHqi_LQkS10ElrP2-61" style="edgeStyle=orthogonalEdgeStyle;rounded=0;orthogonalLoop=1;jettySize=auto;html=1;entryX=0;entryY=0.5;entryDx=0;entryDy=0;" edge="1" parent="1" source="YQQWaHqi_LQkS10ElrP2-62" target="YQQWaHqi_LQkS10ElrP2-63">
          <mxGeometry relative="1" as="geometry" />
        </mxCell>
        <mxCell id="YQQWaHqi_LQkS10ElrP2-62" value="$$y_{t-1}$$" style="rounded=1;whiteSpace=wrap;html=1;fontStyle=1;fillColor=#e1d5e7;strokeColor=#9673a6;" vertex="1" parent="1">
          <mxGeometry x="250" y="125" width="40" height="40" as="geometry" />
        </mxCell>
        <mxCell id="YQQWaHqi_LQkS10ElrP2-75" style="edgeStyle=orthogonalEdgeStyle;rounded=0;orthogonalLoop=1;jettySize=auto;html=1;" edge="1" parent="1" source="YQQWaHqi_LQkS10ElrP2-63" target="YQQWaHqi_LQkS10ElrP2-73">
          <mxGeometry relative="1" as="geometry" />
        </mxCell>
        <mxCell id="YQQWaHqi_LQkS10ElrP2-63" value="$$l_{t-1}$$" style="ellipse;whiteSpace=wrap;html=1;fontStyle=1;fillColor=#fff2cc;strokeColor=#d6b656;" vertex="1" parent="1">
          <mxGeometry x="324" y="125" width="46" height="40" as="geometry" />
        </mxCell>
        <mxCell id="YQQWaHqi_LQkS10ElrP2-65" style="edgeStyle=orthogonalEdgeStyle;rounded=0;orthogonalLoop=1;jettySize=auto;html=1;entryX=0;entryY=0.5;entryDx=0;entryDy=0;" edge="1" parent="1" source="YQQWaHqi_LQkS10ElrP2-66" target="YQQWaHqi_LQkS10ElrP2-67">
          <mxGeometry relative="1" as="geometry" />
        </mxCell>
        <mxCell id="YQQWaHqi_LQkS10ElrP2-66" value="$$y_t$$" style="rounded=1;whiteSpace=wrap;html=1;fontStyle=1;fillColor=#e1d5e7;strokeColor=#9673a6;" vertex="1" parent="1">
          <mxGeometry x="389" y="126" width="40" height="40" as="geometry" />
        </mxCell>
        <mxCell id="YQQWaHqi_LQkS10ElrP2-76" style="edgeStyle=orthogonalEdgeStyle;rounded=0;orthogonalLoop=1;jettySize=auto;html=1;" edge="1" parent="1" source="YQQWaHqi_LQkS10ElrP2-67" target="YQQWaHqi_LQkS10ElrP2-73">
          <mxGeometry relative="1" as="geometry">
            <Array as="points">
              <mxPoint x="486" y="90" />
              <mxPoint x="397" y="90" />
            </Array>
          </mxGeometry>
        </mxCell>
        <mxCell id="YQQWaHqi_LQkS10ElrP2-67" value="$$l_t$$" style="ellipse;whiteSpace=wrap;html=1;fontStyle=1;fillColor=#fff2cc;strokeColor=#d6b656;" vertex="1" parent="1">
          <mxGeometry x="463" y="126" width="46" height="40" as="geometry" />
        </mxCell>
        <mxCell id="YQQWaHqi_LQkS10ElrP2-69" style="edgeStyle=orthogonalEdgeStyle;rounded=0;orthogonalLoop=1;jettySize=auto;html=1;entryX=0;entryY=0.5;entryDx=0;entryDy=0;" edge="1" parent="1" source="YQQWaHqi_LQkS10ElrP2-70" target="YQQWaHqi_LQkS10ElrP2-71">
          <mxGeometry relative="1" as="geometry" />
        </mxCell>
        <mxCell id="YQQWaHqi_LQkS10ElrP2-70" value="$$y_T$$" style="rounded=1;whiteSpace=wrap;html=1;fontStyle=1;fillColor=#e1d5e7;strokeColor=#9673a6;" vertex="1" parent="1">
          <mxGeometry x="606" y="125" width="40" height="40" as="geometry" />
        </mxCell>
        <mxCell id="YQQWaHqi_LQkS10ElrP2-77" style="edgeStyle=orthogonalEdgeStyle;rounded=0;orthogonalLoop=1;jettySize=auto;html=1;entryX=0.5;entryY=1;entryDx=0;entryDy=0;" edge="1" parent="1" source="YQQWaHqi_LQkS10ElrP2-71" target="YQQWaHqi_LQkS10ElrP2-73">
          <mxGeometry relative="1" as="geometry">
            <Array as="points">
              <mxPoint x="703" y="90" />
              <mxPoint x="397" y="90" />
            </Array>
          </mxGeometry>
        </mxCell>
        <mxCell id="YQQWaHqi_LQkS10ElrP2-71" value="$$l_T$$" style="ellipse;whiteSpace=wrap;html=1;fontStyle=1;fillColor=#fff2cc;strokeColor=#d6b656;" vertex="1" parent="1">
          <mxGeometry x="680" y="125" width="46" height="40" as="geometry" />
        </mxCell>
        <mxCell id="YQQWaHqi_LQkS10ElrP2-73" value="$$L$$" style="ellipse;whiteSpace=wrap;html=1;fillColor=#fff2cc;strokeColor=#d6b656;" vertex="1" parent="1">
          <mxGeometry x="367" y="5" width="60" height="50" as="geometry" />
        </mxCell>
      </root>
    </mxGraphModel>
  </diagram>
</mxfile>
